<svg width="41" height="40" viewBox="0 0 41 40" fill="none" xmlns="http://www.w3.org/2000/svg" id="company">
<g clip-path="url(#clip0_402_80)">
<path d="M27.0044 38V29C27.0044 28.45 26.5544 28 26.0044 28H14.0044C13.4544 28 13.0044 28.45 13.0044 29V38H10.0044C9.45439 38 9.00439 37.55 9.00439 37V6H30.0044C30.5544 6 31.0044 6.45 31.0044 7V38H27.0044ZM19.0044 38H15.0044V30H19.0044V38ZM25.0044 38H21.0044V30H25.0044V38ZM7.00439 2H32.0044C32.5544 2 33.0044 2.45 33.0044 3V4H8.00439C7.45439 4 7.00439 3.55 7.00439 3V2ZM39.0044 38H33.0044V6C34.1044 6 35.0044 5.1 35.0044 4V2C35.0044 0.9 34.1044 0 33.0044 0H7.00439C5.90439 0 5.00439 0.9 5.00439 2V4C5.00439 5.1 5.90439 6 7.00439 6V38H1.00439C0.454395 38 0.00439453 38.45 0.00439453 39C0.00439453 39.55 0.454395 40 1.00439 40H7.00439H33.0044H39.0044C39.5544 40 40.0044 39.55 40.0044 39C40.0044 38.45 39.5544 38 39.0044 38Z" fill="#00112C"/>
<path d="M13.0044 24H15.0044V22H13.0044V24Z" fill="#00112C"/>
<path d="M19.0044 24H21.0044V22H19.0044V24Z" fill="#00112C"/>
<path d="M25.0044 24H27.0044V22H25.0044V24Z" fill="#00112C"/>
<path d="M13.0044 18H15.0044V16H13.0044V18Z" fill="#00112C"/>
<path d="M19.0044 18H21.0044V16H19.0044V18Z" fill="#00112C"/>
<path d="M25.0044 18H27.0044V16H25.0044V18Z" fill="#00112C"/>
<path d="M13.0044 12H15.0044V10H13.0044V12Z" fill="#00112C"/>
<path d="M19.0044 12H21.0044V10H19.0044V12Z" fill="#00112C"/>
<path d="M25.0044 12H27.0044V10H25.0044V12Z" fill="#00112C"/>
</g>
<defs>
<clipPath id="clip0_402_80">
<rect width="40" height="40" fill="white" transform="translate(0.00439453)"/>
</clipPath>
</defs>
</svg>
