<svg width="41" height="40" viewBox="0 0 41 40" fill="none" xmlns="http://www.w3.org/2000/svg" id="headquarters">
<g clip-path="url(#clip0_402_92)">
<path d="M24.0044 38V28H34.0044H35.0044C35.5544 28 36.0044 28.45 36.0044 29V38H24.0044ZM19.0044 38C18.4544 38 18.0044 37.55 18.0044 37V28V26V16V14V10H21.0044C21.5544 10 22.0044 10.45 22.0044 11V14V16V26V28V38H19.0044ZM4.00439 37V28H6.00439H16.0044V38H5.00439C4.45439 38 4.00439 37.55 4.00439 37ZM8.00439 16H10.0044H16.0044V26H9.00439C8.45439 26 8.00439 25.55 8.00439 25V16ZM12.0044 10H16.0044V14H13.0044C12.4544 14 12.0044 13.55 12.0044 13V10ZM14.0044 6H19.0044V8H18.0044H16.0044H15.0044C14.4544 8 14.0044 7.55 14.0044 7V6ZM26.0044 7V8H24.0044H22.0044H21.0044V6H25.0044C25.5544 6 26.0044 6.45 26.0044 7ZM28.0044 14H24.0044V10H27.0044C27.5544 10 28.0044 10.45 28.0044 11V14ZM32.0044 17V26H24.0044V16H30.0044H31.0044C31.5544 16 32.0044 16.45 32.0044 17ZM39.0044 38H38.0044V28C38.0044 26.9 37.1044 26 36.0044 26H34.0044V16C34.0044 14.9 33.1044 14 32.0044 14H30.0044V10C30.0044 8.9 29.1044 8 28.0044 8V6C28.0044 4.9 27.1044 4 26.0044 4H21.0044V1C21.0044 0.45 20.5544 0 20.0044 0C19.4544 0 19.0044 0.45 19.0044 1V4H14.0044C12.9044 4 12.0044 4.9 12.0044 6V8C10.9044 8 10.0044 8.9 10.0044 10V14H8.00439C6.90439 14 6.00439 14.9 6.00439 16V26H4.00439C2.90439 26 2.00439 26.9 2.00439 28V38H1.00439C0.454395 38 0.00439453 38.45 0.00439453 39C0.00439453 39.55 0.454395 40 1.00439 40H2.00439H16.0044H18.0044H22.0044H24.0044H38.0044H39.0044C39.5544 40 40.0044 39.55 40.0044 39C40.0044 38.45 39.5544 38 39.0044 38Z" fill="#00112C"/>
<path d="M27.0044 36H29.0044V34H27.0044V36Z" fill="#00112C"/>
<path d="M31.0044 36H33.0044V34H31.0044V36Z" fill="#00112C"/>
<path d="M27.0044 32H29.0044V30H27.0044V32Z" fill="#00112C"/>
<path d="M29.0044 22H27.0044V24H29.0044V22Z" fill="#00112C"/>
<path d="M29.0044 18H27.0044V20H29.0044V18Z" fill="#00112C"/>
<path d="M11.0044 24H13.0044V22H11.0044V24Z" fill="#00112C"/>
<path d="M11.0044 20H13.0044V18H11.0044V20Z" fill="#00112C"/>
<path d="M31.0044 32H33.0044V30H31.0044V32Z" fill="#00112C"/>
<path d="M7.00439 36H9.00439V34H7.00439V36Z" fill="#00112C"/>
<path d="M11.0044 36H13.0044V34H11.0044V36Z" fill="#00112C"/>
<path d="M7.00439 32H9.00439V30H7.00439V32Z" fill="#00112C"/>
<path d="M11.0044 32H13.0044V30H11.0044V32Z" fill="#00112C"/>
</g>
<defs>
<clipPath id="clip0_402_92">
<rect width="40" height="40" fill="white" transform="translate(0.00439453)"/>
</clipPath>
</defs>
</svg>
