<svg width="40" height="40" viewBox="0 0 40 40" fill="none" xmlns="http://www.w3.org/2000/svg" id="store">
<g clip-path="url(#clip0_402_107)">
<path d="M6 37V34H33C33.55 34 34 34.45 34 35V38H7C6.45 38 6 37.55 6 37ZM6.5 20C8.36 20 10 19.07 11 17.65C12 19.07 13.64 20 15.5 20C17.36 20 19 19.07 20 17.65C21 19.07 22.64 20 24.5 20C26.36 20 28 19.07 29 17.65C30 19.07 31.64 20 33.5 20C33.67 20 33.83 19.97 34 19.95V32H7C6.45 32 6 31.55 6 31V19.95C6.17 19.97 6.33 20 6.5 20ZM5.8 2H10V13H3.36L5.8 2ZM18.95 15C18.7 16.69 17.26 18 15.5 18C13.74 18 12.3 16.69 12.05 15H18.95ZM19 2V13H12V2H19ZM27.95 15C27.7 16.69 26.26 18 24.5 18C22.74 18 21.3 16.69 21.05 15H27.95ZM28 2V13H21V2H28ZM34.37 2.78L36.64 13H30V2H33.4C33.86 2 34.27 2.33 34.37 2.78ZM33.5 18C31.74 18 30.3 16.69 30.05 15H36.95C36.7 16.7 35.25 18 33.5 18ZM3.05 15H9.95C9.7 16.69 8.26 18 6.5 18C4.75 18 3.3 16.7 3.05 15ZM39 38H36V19.37C37.67 18.51 38.87 16.83 38.99 14.84C39.01 14.58 38.98 14.31 38.92 14.01L36.15 1.57C35.95 0.65 35.14 0 34.2 0H30H28H21H19H12H10H5.8C4.87 0 4.05 0.65 3.85 1.57L1.08 14.01C1.01 14.31 0.99 14.58 1.01 14.84C1.13 16.83 2.33 18.51 4 19.37V38H1C0.45 38 0 38.45 0 39C0 39.55 0.45 40 1 40H4H36H39C39.55 40 40 39.55 40 39C40 38.45 39.55 38 39 38Z" fill="#00112C"/>
</g>
<defs>
<clipPath id="clip0_402_107">
<rect width="40" height="40" fill="white"/>
</clipPath>
</defs>
</svg>
