<svg width="40" height="36" viewBox="0 0 40 36" fill="none" xmlns="http://www.w3.org/2000/svg" id="diamond">
<path d="M39.99 12.1666C40 12.1266 40 12.0866 40 12.0467C40 11.9967 40 11.9467 40 11.8967C40 11.8567 39.99 11.8167 39.98 11.7767C39.97 11.7267 39.95 11.6768 39.93 11.6268C39.92 11.6068 39.92 11.5868 39.91 11.5668C39.8999 11.5468 39.8899 11.5368 39.8799 11.5168C39.8699 11.4968 39.8599 11.4768 39.8499 11.4568L33.1466 0.929742C32.9565 0.629825 32.6863 0.389892 32.3762 0.229936L32.3662 0.219939C32.3562 0.219939 32.3562 0.219939 32.3462 0.209942C32.076 0.0799778 31.7759 0 31.4557 0H8.54427C8.23412 0 7.93397 0.0799778 7.66383 0.209942C7.65383 0.209942 7.65383 0.209942 7.64382 0.209942L7.63382 0.219939C7.32366 0.379894 7.05353 0.609831 6.86343 0.919745L0.150075 11.4568C0.14007 11.4768 0.130065 11.4968 0.12006 11.5168C0.110055 11.5368 0.10005 11.5468 0.090045 11.5668C0.08004 11.5868 0.08004 11.6068 0.070035 11.6268C0.050025 11.6768 0.04002 11.7267 0.02001 11.7767C0.010005 11.8167 0.010005 11.8567 0 11.8967C0 11.9467 0 11.9967 0 12.0467C0 12.0866 0 12.1266 0.010005 12.1666C0.02001 12.2166 0.030015 12.2666 0.050025 12.3166C0.06003 12.3566 0.08004 12.3966 0.090045 12.4265C0.10005 12.4465 0.10005 12.4565 0.110055 12.4765C0.130065 12.5065 0.150075 12.5365 0.18009 12.5665C0.190095 12.5865 0.2001 12.6165 0.22011 12.6365L19.2296 35.6301C19.2396 35.6501 19.2596 35.6501 19.2796 35.6701C19.3497 35.7501 19.4297 35.8101 19.5198 35.86C19.5498 35.88 19.5798 35.9 19.6098 35.91C19.7299 35.96 19.8599 36 19.99 36C20.1201 36 20.2501 35.96 20.3702 35.91C20.4002 35.9 20.4302 35.88 20.4602 35.86C20.5503 35.8101 20.6303 35.7501 20.7003 35.6701C20.7104 35.6501 20.7404 35.6501 20.7504 35.6301L39.7599 12.6365C39.7799 12.6165 39.7899 12.5965 39.7999 12.5665C39.8199 12.5365 39.8499 12.5065 39.8699 12.4765C39.8799 12.4565 39.8799 12.4465 39.8899 12.4265C39.91 12.3866 39.92 12.3566 39.93 12.3166C39.97 12.2666 39.98 12.2166 39.99 12.1666ZM37.1886 10.9969H30.1151C29.3847 10.9969 28.9045 10.2472 29.2046 9.58734L32.1561 3.09914L37.1886 10.9969ZM14.3472 12.9964H24.3022C24.9725 12.9964 25.4527 13.6462 25.2626 14.286L20 31.5512L14.3472 12.9964ZM20 2.85921L25.1826 10.9969H16.6483C15.8579 10.9969 15.3777 10.1272 15.8079 9.45737L20 2.85921ZM13.1466 9.90725L9.55478 1.99944H16.3582C17.1486 1.99944 17.6288 2.8692 17.1986 3.53902L13.1466 9.90725ZM21.8209 1.99944H28.8944C29.6248 1.99944 30.1051 2.74924 29.8049 3.40905L26.8534 9.89725L21.8209 1.99944ZM7.85393 3.08914L11.4457 10.9969H4.64232C3.85193 10.9969 3.37169 10.1272 3.8019 9.45737L7.85393 3.08914ZM12.4762 13.7062L17.5888 30.5015L3.12156 12.9964H11.5158C11.956 12.9964 12.3462 13.2863 12.4762 13.7062ZM22.4112 30.5015L27.7439 12.9964H34.7574C35.6078 12.9964 36.068 13.9761 35.5278 14.6359L22.4112 30.5015Z" fill="#00112C"/>
</svg>
