<svg width="40" height="40" viewBox="0 0 40 40" fill="none" xmlns="http://www.w3.org/2000/svg" id="heart">
<path d="M20 2C23.31 2 26 4.69 26 8C26 11.31 23.31 14 20 14C16.69 14 14 11.31 14 8C14 4.69 16.69 2 20 2ZM20 16C24.41 16 28 12.41 28 8C28 3.59 24.41 0 20 0C15.59 0 12 3.59 12 8C12 12.41 15.59 16 20 16Z" fill="#00112C"/>
<path d="M27 18H13C6.93 18 2 22.93 2 29V39C2 39.55 2.45 40 3 40C3.55 40 4 39.55 4 39V29C4 24.04 8.04 20 13 20H27C31.96 20 36 24.04 36 29V39C36 39.55 36.45 40 37 40C37.55 40 38 39.55 38 39V29C38 22.93 33.07 18 27 18Z" fill="#00112C"/>
<path d="M20.06 35.82C18.29 34.52 15 31.58 15 29C15 28.67 15.1 27 17 27C18.83 27 18.99 28.54 19 29C19 29.55 19.45 30 20 30C20.55 30 21 29.55 21 29C21 28.67 21.1 27 23 27C24.83 27 24.99 28.54 25 29C25 32.52 21.41 35.01 20.06 35.82ZM23 25C21.61 25 20.64 25.54 20 26.28C19.36 25.54 18.39 25 17 25C14.07 25 13 27.39 13 29C13 33.48 19.18 37.66 19.45 37.83C19.61 37.94 19.81 38 20 38C20.15 38 20.31 37.96 20.45 37.89C20.71 37.76 27 34.55 27 29C27 27.39 25.93 25 23 25Z" fill="#00112C"/>
</svg>
