<svg width="40" height="40" viewBox="0 0 40 40" fill="none" xmlns="http://www.w3.org/2000/svg" id="integrator">
<path d="M34.1395 5.85146C26.3376 -1.95049 13.6444 -1.95049 5.85244 5.85146C-1.94951 13.6534 -1.94951 26.3466 5.85244 34.1385C9.63338 37.9195 14.6546 40 19.996 40C25.3373 40 30.3586 37.9195 34.1395 34.1385C37.9205 30.3576 40.001 25.3363 40.001 19.995C40.001 14.6537 37.9205 9.63241 34.1395 5.85146ZM2.05149 20.9952H4.04199C4.26204 24.5561 5.64239 27.897 8.01298 30.5676L6.60263 31.978C3.78192 28.8372 2.27154 24.9562 2.05149 20.9952ZM29.8984 29.8975C27.2578 32.5381 23.7369 33.9985 19.996 33.9985C16.5951 33.9985 13.3843 32.7782 10.8337 30.5676L12.5641 28.8372C13.3043 29.3673 14.1645 29.7374 15.0947 29.8775C15.4148 29.9275 15.7249 29.9475 16.045 29.9475C17.6354 29.9475 19.1458 29.3273 20.286 28.187L20.9962 27.4769C21.7764 26.6967 21.7764 25.4264 20.9962 24.6462L15.3348 18.9847C14.5546 18.2045 13.2843 18.2045 12.5041 18.9847L11.8039 19.7049C10.4336 21.0753 9.82343 22.9657 10.1135 24.8862C10.2535 25.8165 10.6236 26.6767 11.1538 27.4169L9.42333 29.1473C7.21278 26.6066 5.99247 23.3958 5.99247 19.985C5.99247 16.2441 7.45284 12.7332 10.0935 10.0825C12.7342 7.44186 16.255 5.9815 19.996 5.9815C23.3968 5.9815 26.6076 7.2018 29.1583 9.41235L27.4278 11.1428C26.6876 10.6127 25.8274 10.2426 24.8972 10.1025C22.9667 9.80245 21.0762 10.4226 19.7159 11.7929L19.0057 12.5031C18.2255 13.2833 18.2255 14.5536 19.0057 15.3338L19.6259 15.954L18.2955 17.2843C17.9055 17.6744 17.9055 18.3046 18.2955 18.6947C18.4956 18.8947 18.7457 18.9847 19.0057 18.9847C19.2658 18.9847 19.5159 18.8847 19.7159 18.6947L21.0462 17.3643L22.6366 18.9547L21.3063 20.2851C20.9162 20.6752 20.9162 21.3053 21.3063 21.6954C21.5063 21.8955 21.7564 21.9855 22.0165 21.9855C22.2765 21.9855 22.5266 21.8855 22.7267 21.6954L24.057 20.3651L24.6771 20.9852C25.0672 21.3753 25.5774 21.5654 26.0875 21.5654C26.5976 21.5654 27.1077 21.3653 27.4978 20.9852L28.208 20.2751C29.5784 18.9047 30.1885 17.0143 29.8884 15.0938C29.7484 14.1635 29.3783 13.3033 28.8482 12.5631L30.5786 10.8327C32.7892 13.3733 34.0095 16.5841 34.0095 19.995C33.9995 23.7359 32.5391 27.2568 29.8984 29.8975ZM13.2143 21.1153L13.9245 20.4051L19.5859 26.0665L18.8757 26.7767C17.9655 27.6869 16.6951 28.097 15.4048 27.897C13.7444 27.6469 12.3441 26.2466 12.094 24.5861C11.8939 23.2958 12.3041 22.0255 13.2143 21.1153ZM20.4061 13.9235L21.1163 13.2133C21.8764 12.4531 22.8867 12.043 23.947 12.043C24.157 12.043 24.3671 12.063 24.5871 12.093C26.2475 12.3431 27.6479 13.7434 27.8979 15.4038C28.098 16.6942 27.6879 17.9645 26.7777 18.8747L26.0675 19.5849L20.4061 13.9235ZM30.5686 8.002C27.8979 5.63141 24.5571 4.25106 20.9962 4.03101V2.05051C24.9572 2.27057 28.8382 3.78095 31.979 6.59165L30.5686 8.002ZM18.9957 4.04101C15.4348 4.26107 12.094 5.64141 9.42333 8.012L8.01298 6.59165C11.1538 3.78095 15.0447 2.26057 19.0057 2.05051V4.04101H18.9957ZM8.00298 9.42235C5.63238 12.093 4.25204 15.4339 4.03198 18.9947H2.05149C2.27154 15.0338 3.78192 11.1528 6.59262 8.002L8.00298 9.42235ZM9.42333 31.988C12.094 34.3586 15.4348 35.7389 18.9957 35.959V37.9595C14.8947 37.7394 11.0637 36.149 8.00298 33.4084L9.42333 31.988ZM20.9962 35.949C24.5571 35.7289 27.8979 34.3486 30.5686 31.978L31.979 33.3883C28.9182 36.129 25.0872 37.7194 20.9862 37.9395V35.949H20.9962ZM31.989 30.5676C34.3596 27.897 35.7399 24.5561 35.96 20.9952H37.9605C37.7404 25.0963 36.15 28.9272 33.4093 31.988L31.989 30.5676ZM35.95 18.9947C35.7299 15.4339 34.3496 12.093 31.979 9.42235L33.3993 8.002C36.14 11.0628 37.7304 14.8937 37.9505 18.9947H35.95Z" fill="#00112C"/>
</svg>
