<svg width="40" height="41" viewBox="0 0 40 41" fill="none" xmlns="http://www.w3.org/2000/svg" id="partner">
<g clip-path="url(#clip0_396_1089)">
<path d="M40.0005 25.9893C40.0005 24.1877 38.3005 22.6864 36.4005 23.0867C35.2005 23.2869 34.3005 24.2878 34.0005 25.3887C33.7005 26.9901 34.6005 28.2913 35.9005 28.7917V34.1964C35.1005 34.4967 34.4005 35.1973 34.1005 35.998H29.0005C28.4005 35.998 28.0005 35.5976 28.0005 34.9971V19.984C28.0005 18.8831 27.1005 17.9823 26.0005 17.9823H18.0005C16.9005 17.9823 16.0005 17.0815 16.0005 15.9805V14.9797H34.2005C34.7005 16.2808 36.1005 17.1816 37.6005 16.8813C38.8005 16.6812 39.7005 15.6803 39.9005 14.4792C40.2005 12.5776 38.8005 10.8761 37.0005 10.8761C35.7005 10.8761 34.6005 11.6768 34.2005 12.8778H28.0005V5.77165C29.3005 5.27122 30.2005 3.86999 29.9005 2.36869C29.7005 1.16764 28.7005 0.266856 27.6005 0.066682C26.0005 -0.23358 24.7005 0.667205 24.2005 1.96834H17.8005C17.3005 0.667205 15.9005 -0.23358 14.4005 0.066682C13.2005 0.266856 12.3005 1.26773 12.1005 2.46877C11.7005 4.27034 13.2005 5.97183 15.0005 5.97183C16.3005 5.97183 17.4005 5.17113 17.8005 3.97008H24.2005C24.5005 4.77078 25.2005 5.47139 26.0005 5.77165V12.9779H16.0005C14.9005 12.9779 14.0005 13.8787 14.0005 14.9797V15.9805C14.0005 18.1825 15.8005 19.984 18.0005 19.984H25.0005C25.6005 19.984 26.0005 20.3844 26.0005 20.9849V35.8979C26.0005 36.8988 25.3005 37.7995 24.3005 37.9997C23.0005 38.1999 22.0005 37.199 22.0005 35.998V26.9901C22.0005 26.3896 21.6005 25.9893 21.0005 25.9893C20.4005 25.9893 20.0005 26.3896 20.0005 26.9901V35.8979C20.0005 36.8988 19.3005 37.7995 18.3005 37.9997C17.0005 38.1999 16.0005 37.199 16.0005 35.998V26.9901C16.0005 26.3896 15.6005 25.9893 15.0005 25.9893C14.4005 25.9893 14.0005 26.3896 14.0005 26.9901V35.8979C14.0005 36.7987 13.5005 37.5994 12.6005 37.8996C11.7005 38.1999 10.8005 37.7995 10.4005 37.0989C10.8005 36.4984 11.0005 35.7978 11.0005 34.9971C11.0005 33.7961 10.5005 32.6951 9.60049 31.9945C10.4005 31.2939 11.0005 30.1929 11.0005 28.9919C11.0005 27.7908 10.5005 26.6899 9.60049 25.9893C10.4005 25.2887 11.0005 24.1877 11.0005 22.9866C11.0005 21.7856 10.5005 20.6846 9.60049 19.984C10.6005 19.0832 11.2005 17.7821 10.9005 16.3809C10.6005 14.3791 8.80049 12.9779 6.80049 12.9779H5.00049C4.40049 12.9779 4.00049 12.5776 4.00049 11.9771V5.77165C5.30049 5.27122 6.20049 3.97008 5.90049 2.36869C5.70049 1.16764 4.70049 0.266856 3.60049 0.066682C1.70049 -0.333667 0.000488281 1.16764 0.000488281 2.96921C0.000488281 4.27034 0.800488 5.3713 2.00049 5.77165V13.4784C0.800488 14.179 0.000488281 15.4801 0.000488281 16.8813C0.000488281 18.0824 0.500488 19.1833 1.40049 19.8839C0.500488 20.6846 0.000488281 21.7856 0.000488281 22.9866C0.000488281 24.1877 0.500488 25.2887 1.40049 25.9893C0.500488 26.6899 0.000488281 27.7908 0.000488281 28.9919C0.000488281 30.1929 0.500488 31.2939 1.40049 31.9945C0.400488 32.8953 -0.199512 34.1964 0.100488 35.5976C0.400488 37.5994 2.20049 39.0006 4.20049 39.0006H7.00049C7.70049 39.0006 8.30049 38.8004 8.90049 38.5002C9.60049 39.4009 10.8005 40.0015 12.0005 40.0015C13.2005 40.0015 14.3005 39.501 15.0005 38.6002C15.7005 39.4009 16.8005 40.0015 18.0005 40.0015C19.2005 40.0015 20.3005 39.501 21.0005 38.6002C21.7005 39.4009 22.8005 40.0015 24.0005 40.0015C25.5005 40.0015 26.8005 39.2008 27.4005 37.9997H34.1005C34.6005 39.3009 36.0005 40.2016 37.5005 39.9014C38.7005 39.7012 39.6005 38.7003 39.8005 37.5994C40.1005 35.998 39.2005 34.6968 37.9005 34.1964V28.7917C39.2005 28.3914 40.0005 27.2904 40.0005 25.9893ZM27.0005 1.96834C27.6005 1.96834 28.0005 2.36869 28.0005 2.96921C28.0005 3.56973 27.6005 3.97008 27.0005 3.97008C26.4005 3.97008 26.0005 3.56973 26.0005 2.96921C26.0005 2.36869 26.4005 1.96834 27.0005 1.96834ZM15.0005 3.97008C14.4005 3.97008 14.0005 3.56973 14.0005 2.96921C14.0005 2.36869 14.4005 1.96834 15.0005 1.96834C15.6005 1.96834 16.0005 2.36869 16.0005 2.96921C16.0005 3.56973 15.6005 3.97008 15.0005 3.97008ZM37.0005 12.9779C37.6005 12.9779 38.0005 13.3783 38.0005 13.9788C38.0005 14.5793 37.6005 14.9797 37.0005 14.9797C36.4005 14.9797 36.0005 14.5793 36.0005 13.9788C36.0005 13.3783 36.4005 12.9779 37.0005 12.9779ZM3.00049 1.96834C3.60049 1.96834 4.00049 2.36869 4.00049 2.96921C4.00049 3.56973 3.60049 3.97008 3.00049 3.97008C2.40049 3.97008 2.00049 3.56973 2.00049 2.96921C2.00049 2.36869 2.40049 1.96834 3.00049 1.96834ZM2.00049 16.9814C2.00049 15.8805 2.90049 14.9797 4.00049 14.9797H7.00049C8.10049 14.9797 9.00049 15.8805 9.00049 16.9814C9.00049 18.0824 8.10049 18.9832 7.00049 18.9832H4.00049C2.90049 18.9832 2.00049 18.0824 2.00049 16.9814ZM2.00049 22.9866C2.00049 21.8857 2.90049 20.9849 4.00049 20.9849H7.00049C8.10049 20.9849 9.00049 21.8857 9.00049 22.9866C9.00049 24.0876 8.10049 24.9884 7.00049 24.9884H4.00049C2.90049 24.9884 2.00049 24.0876 2.00049 22.9866ZM2.00049 28.9919C2.00049 27.8909 2.90049 26.9901 4.00049 26.9901H7.00049C8.10049 26.9901 9.00049 27.8909 9.00049 28.9919C9.00049 30.0928 8.10049 30.9936 7.00049 30.9936H4.00049C2.90049 30.9936 2.00049 30.0928 2.00049 28.9919ZM4.00049 36.9989C2.90049 36.9989 2.00049 36.0981 2.00049 34.9971C2.00049 33.8961 2.90049 32.9954 4.00049 32.9954H7.00049C8.10049 32.9954 9.00049 33.8961 9.00049 34.9971C9.00049 36.0981 8.10049 36.9989 7.00049 36.9989H4.00049ZM37.0005 24.9884C37.6005 24.9884 38.0005 25.3887 38.0005 25.9893C38.0005 26.5898 37.6005 26.9901 37.0005 26.9901C36.4005 26.9901 36.0005 26.5898 36.0005 25.9893C36.0005 25.3887 36.4005 24.9884 37.0005 24.9884ZM37.0005 37.9997C36.4005 37.9997 36.0005 37.5994 36.0005 36.9989C36.0005 36.3983 36.4005 35.998 37.0005 35.998C37.6005 35.998 38.0005 36.3983 38.0005 36.9989C38.0005 37.5994 37.6005 37.9997 37.0005 37.9997Z" fill="#00112C"/>
</g>
<defs>
<clipPath id="clip0_396_1089">
<rect width="40" height="40" fill="white" transform="translate(0.000488281 0.00146484)"/>
</clipPath>
</defs>
</svg>
