<svg width="40" height="41" viewBox="0 0 40 41" fill="none" xmlns="http://www.w3.org/2000/svg" id="schemes">
<g clip-path="url(#clip0_396_885)">
<path d="M20 26.0015C16.69 26.0015 14 23.3115 14 20.0015C14 16.6915 16.69 14.0015 20 14.0015C23.31 14.0015 26 16.6915 26 20.0015C26 23.3115 23.31 26.0015 20 26.0015ZM20 16.0015C17.79 16.0015 16 17.7915 16 20.0015C16 22.2115 17.79 24.0015 20 24.0015C22.21 24.0015 24 22.2115 24 20.0015C24 17.7915 22.21 16.0015 20 16.0015Z" fill="#00112C"/>
<path d="M38 40.0015H2C0.9 40.0015 0 39.1015 0 38.0015V2.00146C0 0.901465 0.9 0.00146484 2 0.00146484H38C39.1 0.00146484 40 0.901465 40 2.00146V38.0015C40 39.1015 39.1 40.0015 38 40.0015ZM2 2.00146V37.0015C2 37.5515 2.45 38.0015 3 38.0015H38V3.00146C38 2.45146 37.55 2.00146 37 2.00146H2Z" fill="#00112C"/>
<path d="M33 20.0015C33 12.8315 27.17 7.00146 20 7.00146C17.52 7.00146 15.2 7.70146 13.22 8.92146C12.73 8.59146 12.14 8.39147 11.52 8.39147C9.87 8.39147 8.52 9.74147 8.52 11.3915C8.52 12.0115 8.71 12.5815 9.02 13.0515C7.74 15.0615 7 17.4515 7 20.0015C7 27.1715 12.83 33.0015 20 33.0015C22.57 33.0015 24.97 32.2515 26.99 30.9615C27.43 31.2115 27.94 31.3615 28.49 31.3615C30.14 31.3615 31.49 30.0115 31.49 28.3615C31.49 27.8015 31.33 27.2715 31.06 26.8215C32.29 24.8315 33 22.5015 33 20.0015ZM10.59 11.0415C10.69 10.7715 10.91 10.5515 11.18 10.4515C11.29 10.4115 11.4 10.3915 11.52 10.3915C12.07 10.3915 12.52 10.8415 12.52 11.3915C12.52 11.9415 12.07 12.3915 11.52 12.3915C10.97 12.3915 10.52 11.9415 10.52 11.3915C10.52 11.2715 10.54 11.1515 10.59 11.0415ZM28.49 29.3615C27.94 29.3615 27.49 28.9115 27.49 28.3615C27.49 28.2315 27.52 28.1015 27.57 27.9815V27.9715C27.67 27.7315 27.86 27.5415 28.1 27.4415C28.22 27.3915 28.35 27.3615 28.49 27.3615C29.04 27.3615 29.49 27.8115 29.49 28.3615C29.49 28.9115 29.04 29.3615 28.49 29.3615ZM29.5 25.5415C29.18 25.4215 28.85 25.3615 28.49 25.3615C26.84 25.3615 25.49 26.7115 25.49 28.3615C25.49 28.7315 25.56 29.0915 25.69 29.4215C24.03 30.4215 22.09 31.0015 20 31.0015C13.93 31.0015 9 26.0715 9 20.0015C9 17.8915 9.59 15.9215 10.62 14.2515H10.63C10.91 14.3415 11.21 14.3915 11.52 14.3915C13.17 14.3915 14.52 13.0415 14.52 11.3915C14.52 11.0915 14.48 10.8115 14.39 10.5415C16.03 9.56146 17.95 9.00146 20 9.00146C26.07 9.00146 31 13.9315 31 20.0015C31 22.0215 30.45 23.9115 29.5 25.5415Z" fill="#00112C"/>
</g>
<defs>
<clipPath id="clip0_396_885">
<rect width="40" height="40" fill="white" transform="translate(0 0.00146484)"/>
</clipPath>
</defs>
</svg>
