<svg width="41" height="40" viewBox="0 0 41 40" fill="none" xmlns="http://www.w3.org/2000/svg" id="angry">
<path d="M20.9932 38C11.0632 38 2.99316 29.92 2.99316 20C2.99316 10.07 11.0632 2 20.9932 2C30.9132 2 38.9932 10.07 38.9932 20C38.9932 29.92 30.9132 38 20.9932 38ZM20.9932 0C9.96316 0 0.993164 8.97 0.993164 20C0.993164 31.03 9.96316 40 20.9932 40C32.0232 40 40.9932 31.03 40.9932 20C40.9932 8.97 32.0232 0 20.9932 0Z" fill="#00112C"/>
<path d="M11.4932 20.9999C11.4932 22.0999 12.3932 22.9999 13.4932 22.9999C14.5932 22.9999 15.4932 22.0999 15.4932 20.9999C15.4932 20.8799 15.4732 20.7599 15.4532 20.6399L16.0932 20.9099C16.2232 20.9699 16.3632 20.9999 16.4932 20.9999C16.8832 20.9999 17.2532 20.7699 17.4132 20.3899C17.6332 19.8799 17.3932 19.2899 16.8932 19.0799L9.89317 16.0799C9.38317 15.8599 8.79317 16.0999 8.58317 16.5999C8.36317 17.1099 8.60317 17.6999 9.10317 17.9099L12.3932 19.3199C11.8532 19.6899 11.4932 20.2999 11.4932 20.9999Z" fill="#00112C"/>
<path d="M32.1032 16.08L25.1032 19.08C24.5932 19.3 24.3632 19.89 24.5732 20.39C24.7332 20.77 25.1032 21 25.4932 21C25.6232 21 25.7632 20.97 25.8832 20.92L26.5232 20.64C26.5032 20.76 26.4832 20.87 26.4832 21C26.4832 22.1 27.3832 23 28.4832 23C29.5832 23 30.4832 22.1 30.4832 21C30.4832 20.3 30.1232 19.69 29.5832 19.33L32.8732 17.92C33.3832 17.7 33.6132 17.11 33.4032 16.61C33.1932 16.1 32.6032 15.86 32.1032 16.08Z" fill="#00112C"/>
<path d="M20.9932 27C15.2932 27 10.9932 29.15 10.9932 32C10.9932 32.55 11.4432 33 11.9932 33C12.5432 33 12.9932 32.55 12.9932 32C12.9932 30.78 16.1132 29 20.9932 29C25.8732 29 28.9932 30.78 28.9932 32C28.9932 32.55 29.4432 33 29.9932 33C30.5432 33 30.9932 32.55 30.9932 32C30.9932 29.15 26.6932 27 20.9932 27Z" fill="#00112C"/>
</svg>
