<svg width="41" height="40" viewBox="0 0 41 40" fill="none" xmlns="http://www.w3.org/2000/svg" id="annoyed">
<g clip-path="url(#clip0_401_64)">
<path d="M20.9932 2C11.0632 2 2.99316 10.07 2.99316 20C2.99316 29.92 11.0632 38 20.9932 38C30.9132 38 38.9932 29.92 38.9932 20C38.9932 10.07 30.9132 2 20.9932 2ZM20.9932 40C9.96316 40 0.993164 31.03 0.993164 20C0.993164 8.97 9.96316 0 20.9932 0C32.0232 0 40.9932 8.97 40.9932 20C40.9932 31.03 32.0232 40 20.9932 40Z" fill="#00112C"/>
<path d="M16.9932 19H9.99316C9.44316 19 8.99316 18.55 8.99316 18C8.99316 17.45 9.44316 17 9.99316 17H16.9932C17.5432 17 17.9932 17.45 17.9932 18C17.9932 18.55 17.5432 19 16.9932 19Z" fill="#00112C"/>
<path d="M31.9932 19H24.9932C24.4432 19 23.9932 18.55 23.9932 18C23.9932 17.45 24.4432 17 24.9932 17H31.9932C32.5432 17 32.9932 17.45 32.9932 18C32.9932 18.55 32.5432 19 31.9932 19Z" fill="#00112C"/>
<path d="M20.9932 32C20.4432 32 19.9932 31.55 19.9932 31C19.9932 29.78 16.8732 28 11.9932 28C11.4432 28 10.9932 27.55 10.9932 27C10.9932 26.45 11.4432 26 11.9932 26C17.6932 26 21.9932 28.15 21.9932 31C21.9932 31.55 21.5432 32 20.9932 32Z" fill="#00112C"/>
</g>
<defs>
<clipPath id="clip0_401_64">
<rect width="40" height="40" fill="white" transform="translate(0.993164)"/>
</clipPath>
</defs>
</svg>
