<svg width="41" height="40" viewBox="0 0 41 40" fill="none" xmlns="http://www.w3.org/2000/svg" id="doubt">
<g clip-path="url(#clip0_401_43)">
<path d="M20.9932 2C11.0632 2 2.99316 10.07 2.99316 20C2.99316 29.92 11.0632 38 20.9932 38C30.9132 38 38.9932 29.92 38.9932 20C38.9932 10.07 30.9132 2 20.9932 2ZM20.9932 40C9.96316 40 0.993164 31.03 0.993164 20C0.993164 8.97 9.96316 0 20.9932 0C32.0232 0 40.9932 8.97 40.9932 20C40.9932 31.03 32.0232 40 20.9932 40Z" fill="#00112C"/>
<path d="M12.8232 30.2599C12.7932 30.2599 12.7732 30.2599 12.7432 30.2599C12.1932 30.2199 11.7832 29.7399 11.8232 29.1899C12.0932 25.6799 16.7432 24.0399 20.2132 23.1099C25.3032 21.7399 29.4332 21.7699 31.5432 23.1799C32.0032 23.4899 32.1232 24.1099 31.8232 24.5699C31.5132 25.0299 30.8932 25.1499 30.4332 24.8499C29.1932 24.0199 25.9932 23.6399 20.7332 25.0499C16.2732 26.2499 13.9432 27.6999 13.8132 29.3599C13.7732 29.8599 13.3332 30.2599 12.8232 30.2599Z" fill="#00112C"/>
<path d="M27.9932 16C27.9932 17.1 27.0932 18 25.9932 18C24.8932 18 23.9932 17.1 23.9932 16C23.9932 14.9 24.8932 14 25.9932 14C27.0932 14 27.9932 14.9 27.9932 16Z" fill="#00112C"/>
<path d="M31.9932 14.9999C31.8032 14.9999 31.6132 14.9499 31.4432 14.8299L25.4432 10.8299C24.9832 10.5199 24.8632 9.89992 25.1632 9.43992C25.4632 8.97992 26.0832 8.85992 26.5532 9.15992L32.5532 13.1599C33.0132 13.4699 33.1332 14.0899 32.8332 14.5499C32.6332 14.8399 32.3132 14.9999 31.9932 14.9999Z" fill="#00112C"/>
<path d="M17.9932 16C17.9932 17.1 17.0932 18 15.9932 18C14.8932 18 13.9932 17.1 13.9932 16C13.9932 14.9 14.8932 14 15.9932 14C17.0932 14 17.9932 14.9 17.9932 16Z" fill="#00112C"/>
<path d="M9.99317 15.9999C9.70317 15.9999 9.42317 15.8799 9.22317 15.6399C8.87317 15.2199 8.92317 14.5899 9.35317 14.2299L15.3532 9.22993C15.7732 8.87993 16.4032 8.92993 16.7632 9.35993C17.1132 9.77993 17.0632 10.4099 16.6332 10.7699L10.6332 15.7699C10.4432 15.9199 10.2232 15.9999 9.99317 15.9999Z" fill="#00112C"/>
</g>
<defs>
<clipPath id="clip0_401_43">
<rect width="40" height="40" fill="white" transform="translate(0.993164)"/>
</clipPath>
</defs>
</svg>
