<svg width="41" height="40" viewBox="0 0 41 40" fill="none" xmlns="http://www.w3.org/2000/svg" id="expressionless">
<g clip-path="url(#clip0_401_58)">
<path d="M20.9932 40C9.96316 40 0.993164 31.03 0.993164 20C0.993164 8.97 9.96316 0 20.9932 0C32.0232 0 40.9932 8.97 40.9932 20C40.9932 31.03 32.0232 40 20.9932 40ZM20.9932 2C11.0632 2 2.99316 10.07 2.99316 20C2.99316 29.92 11.0632 38 20.9932 38C30.9132 38 38.9932 29.92 38.9932 20C38.9932 10.07 30.9132 2 20.9932 2Z" fill="#00112C"/>
<path d="M26.9932 29H14.9932C14.4432 29 13.9932 28.55 13.9932 28C13.9932 27.45 14.4432 27 14.9932 27H26.9932C27.5432 27 27.9932 27.45 27.9932 28C27.9932 28.55 27.5432 29 26.9932 29Z" fill="#00112C"/>
<path d="M33.9931 20H28.1731C27.6231 20 27.1731 19.55 27.1731 19C27.1731 18.45 27.6231 18 28.1731 18H33.9931C34.5431 18 34.9931 18.45 34.9931 19C34.9931 19.55 34.5431 20 33.9931 20Z" fill="#00112C"/>
<path d="M13.8132 20H7.99316C7.44316 20 6.99316 19.55 6.99316 19C6.99316 18.45 7.44316 18 7.99316 18H13.8132C14.3632 18 14.8132 18.45 14.8132 19C14.8132 19.55 14.3632 20 13.8132 20Z" fill="#00112C"/>
</g>
<defs>
<clipPath id="clip0_401_58">
<rect width="40" height="40" fill="white" transform="translate(0.993164)"/>
</clipPath>
</defs>
</svg>
