<svg width="41" height="40" viewBox="0 0 41 40" fill="none" xmlns="http://www.w3.org/2000/svg" id="frustrated">
<g clip-path="url(#clip0_401_37)">
<path d="M20.9932 2C11.0632 2 2.99316 10.07 2.99316 20C2.99316 29.92 11.0632 38 20.9932 38C30.9132 38 38.9932 29.92 38.9932 20C38.9932 10.07 30.9132 2 20.9932 2ZM20.9932 40C9.96316 40 0.993164 31.03 0.993164 20C0.993164 8.97 9.96316 0 20.9932 0C32.0232 0 40.9932 8.97 40.9932 20C40.9932 31.03 32.0232 40 20.9932 40Z" fill="#00112C"/>
<path d="M10.9932 19.82C10.5832 19.82 10.1932 19.56 10.0532 19.15C9.86316 18.63 10.1432 18.06 10.6632 17.87C10.8432 17.8 11.1232 17.72 11.4432 17.61C13.5332 16.93 14.9332 16.38 15.6332 16C14.9332 15.61 13.5332 15.07 11.4432 14.39C11.1132 14.28 10.8432 14.19 10.6632 14.13C10.1432 13.95 9.87316 13.37 10.0532 12.85C10.2332 12.33 10.8132 12.06 11.3332 12.24C11.5032 12.3 11.7632 12.38 12.0732 12.49C16.1632 13.83 17.9932 14.66 17.9932 16C17.9932 17.34 16.1632 18.17 12.0632 19.51C11.7532 19.61 11.5032 19.69 11.3232 19.76C11.2132 19.8 11.1032 19.82 10.9932 19.82Z" fill="#00112C"/>
<path d="M29.9932 30C29.4432 30 28.9932 29.55 28.9932 29C28.9932 27.78 25.8732 26 20.9932 26C16.1132 26 12.9932 27.78 12.9932 29C12.9932 29.55 12.5432 30 11.9932 30C11.4432 30 10.9932 29.55 10.9932 29C10.9932 26.15 15.2932 24 20.9932 24C26.6932 24 30.9932 26.15 30.9932 29C30.9932 29.55 30.5432 30 29.9932 30Z" fill="#00112C"/>
<path d="M30.9932 19.8201C30.8832 19.8201 30.7732 19.8001 30.6532 19.7601C30.4832 19.7001 30.2232 19.6201 29.9132 19.5101C25.8232 18.1701 23.9932 17.3401 23.9932 16.0001C23.9932 14.6601 25.8232 13.8301 29.9232 12.4901C30.2332 12.3901 30.4832 12.3101 30.6632 12.2401C31.1832 12.0501 31.7532 12.3301 31.9432 12.8501C32.1332 13.3701 31.8532 13.9401 31.3332 14.1301C31.1532 14.2001 30.8732 14.2801 30.5532 14.3901C28.4632 15.0801 27.0532 15.6201 26.3632 16.0001C27.0632 16.3901 28.4632 16.9301 30.5532 17.6101C30.8832 17.7201 31.1532 17.8101 31.3332 17.8701C31.8532 18.0501 32.1232 18.6301 31.9432 19.1501C31.7932 19.5601 31.4032 19.8201 30.9932 19.8201Z" fill="#00112C"/>
</g>
<defs>
<clipPath id="clip0_401_37">
<rect width="40" height="40" fill="white" transform="translate(0.993164)"/>
</clipPath>
</defs>
</svg>
