<svg width="41" height="40" viewBox="0 0 41 40" fill="none" xmlns="http://www.w3.org/2000/svg" id="happy">
<g clip-path="url(#clip0_401_31)">
<path d="M20.9932 38C11.0632 38 2.99316 29.92 2.99316 20C2.99316 10.07 11.0632 2 20.9932 2C30.9132 2 38.9932 10.07 38.9932 20C38.9932 29.92 30.9132 38 20.9932 38ZM20.9932 0C9.96316 0 0.993164 8.97 0.993164 20C0.993164 31.03 9.96316 40 20.9932 40C32.0232 40 40.9932 31.03 40.9932 20C40.9932 8.97 32.0232 0 20.9932 0Z" fill="#00112C"/>
<path d="M34.7532 18.67C34.1832 17.07 32.6732 16 30.9932 16C29.3132 16 27.8032 17.07 27.2332 18.67C27.0432 19.19 27.3232 19.76 27.8432 19.95C28.3632 20.13 28.9332 19.86 29.1232 19.34C29.4032 18.54 30.1532 18 30.9932 18C31.8332 18 32.5832 18.54 32.8732 19.34C33.0232 19.75 33.4032 20.01 33.8132 20.01C33.9232 20.01 34.0332 19.99 34.1432 19.95C34.6632 19.76 34.9432 19.19 34.7532 18.67Z" fill="#00112C"/>
<path d="M12.8732 19.34C13.0232 19.75 13.4032 20.01 13.8132 20.01C13.9232 20.01 14.0332 19.99 14.1432 19.95C14.6632 19.76 14.9332 19.19 14.7532 18.67C14.1832 17.07 12.6732 16 10.9932 16C9.31316 16 7.80315 17.07 7.23315 18.67C7.04315 19.19 7.32315 19.76 7.84315 19.95C8.36315 20.14 8.93316 19.86 9.12316 19.34C9.40316 18.54 10.1532 18 10.9932 18C11.8332 18 12.5832 18.54 12.8732 19.34Z" fill="#00112C"/>
<path d="M31.0432 22.0001C30.5032 21.9501 30.0032 22.3501 29.9532 22.9001C29.4932 27.5201 25.6432 31.0001 20.9932 31.0001C16.4032 31.0001 12.5632 27.5701 12.0532 23.0201C11.9932 22.4701 11.4932 22.0801 10.9432 22.1401C10.3932 22.2001 10.0032 22.7001 10.0632 23.2401C10.6932 28.8101 15.3832 33.0001 20.9932 33.0001C26.6732 33.0001 31.3832 28.7401 31.9432 23.1001C31.9932 22.5501 31.5932 22.0601 31.0432 22.0001Z" fill="#00112C"/>
</g>
<defs>
<clipPath id="clip0_401_31">
<rect width="40" height="40" fill="white" transform="translate(0.993164)"/>
</clipPath>
</defs>
</svg>
