<svg width="41" height="40" viewBox="0 0 41 40" fill="none" xmlns="http://www.w3.org/2000/svg" id="relieved">
<g clip-path="url(#clip0_401_51)">
<path d="M25.9932 20C27.0977 20 27.9932 19.1046 27.9932 18C27.9932 16.8954 27.0977 16 25.9932 16C24.8886 16 23.9932 16.8954 23.9932 18C23.9932 19.1046 24.8886 20 25.9932 20Z" fill="#00112C"/>
<path d="M15.9932 20C17.0977 20 17.9932 19.1046 17.9932 18C17.9932 16.8954 17.0977 16 15.9932 16C14.8886 16 13.9932 16.8954 13.9932 18C13.9932 19.1046 14.8886 20 15.9932 20Z" fill="#00112C"/>
<path d="M16.7632 11.3601C16.4132 10.9401 15.7832 10.8801 15.3532 11.2301L9.35316 16.2301C8.93316 16.5801 8.87316 17.2101 9.22316 17.6401C9.42316 17.8801 9.70316 18.0001 9.99316 18.0001C10.2232 18.0001 10.4432 17.9201 10.6332 17.7701L16.6332 12.7701C17.0532 12.4101 17.1132 11.7801 16.7632 11.3601Z" fill="#00112C"/>
<path d="M39.6432 12.86C39.8632 12.31 39.9932 11.72 39.9932 11.1C39.9932 8.8 36.5532 2.7 35.8632 1.5C35.5032 0.88 34.4832 0.88 34.1332 1.5C33.9132 1.89 33.4032 2.78 32.8132 3.9C29.4932 1.46 25.4132 0 20.9932 0C9.96316 0 0.993164 8.97 0.993164 20C0.993164 31.03 9.96316 40 20.9932 40C32.0232 40 40.9932 31.03 40.9932 20C40.9932 17.48 40.5032 15.08 39.6432 12.86ZM34.9932 4.06C36.4432 6.74 37.9932 10.03 37.9932 11.1C37.9932 12.7 36.6432 14 34.9932 14C33.3432 14 31.9932 12.7 31.9932 11.1C31.9932 10.02 33.5432 6.74 34.9932 4.06ZM20.9932 38C11.0632 38 2.99316 29.92 2.99316 20C2.99316 10.07 11.0632 2 20.9932 2C25.0932 2 28.8532 3.4 31.8832 5.71C30.9032 7.72 29.9932 9.91 29.9932 11.1C29.9932 12.32 30.4732 13.43 31.2232 14.29L26.5432 11.17C26.0832 10.86 25.4632 10.99 25.1532 11.45C24.8432 11.91 24.9732 12.53 25.4332 12.84L31.4332 16.84C31.6132 16.95 31.8032 17 31.9932 17C32.3132 17 32.6332 16.84 32.8232 16.55C33.0432 16.23 33.0332 15.82 32.8532 15.51C33.5032 15.82 34.2232 16 34.9932 16C36.2232 16 37.3332 15.55 38.2032 14.83C38.7032 16.47 38.9932 18.2 38.9932 20C38.9932 29.92 30.9132 38 20.9932 38Z" fill="#00112C"/>
<path d="M29.9932 24C29.4432 24 28.9932 24.45 28.9932 25C28.9932 26.22 25.8732 28 20.9932 28C16.1132 28 12.9932 26.22 12.9932 25C12.9932 24.45 12.5432 24 11.9932 24C11.4432 24 10.9932 24.45 10.9932 25C10.9932 27.85 15.2932 30 20.9932 30C26.6932 30 30.9932 27.85 30.9932 25C30.9932 24.45 30.5432 24 29.9932 24Z" fill="#00112C"/>
</g>
<defs>
<clipPath id="clip0_401_51">
<rect width="40" height="40" fill="white" transform="translate(0.993164)"/>
</clipPath>
</defs>
</svg>
